<svg width="35" height="35" viewBox="0 0 35 35" fill="none" xmlns="http://www.w3.org/2000/svg">
<path fill-rule="evenodd" clip-rule="evenodd" d="M33.7045 6.55449C34.1681 4.29441 31.9482 2.41624 29.7962 3.24773L3.41609 13.44C1.01278 14.3686 0.905697 17.7293 3.245 18.8089L8.98984 21.4604L11.7227 31.0255C11.8647 31.5223 12.259 31.907 12.7592 32.0367C13.2593 32.1662 13.7908 32.0215 14.1562 31.6561L18.3659 27.4463L24.263 31.8691C25.9748 33.1529 28.4402 32.2178 28.8701 30.1218L33.7045 6.55449ZM4.46726 16.1607L30.8473 5.9684L26.013 29.5358L19.1041 24.354C18.5235 23.9186 17.7111 23.9763 17.1979 24.4895L15.3948 26.2926L15.9366 23.3131L26.552 12.6978C27.0686 12.1812 27.1232 11.362 26.6797 10.7814C26.2362 10.2008 25.4317 10.0379 24.7973 10.4004L10.1372 18.7775L4.46726 16.1607ZM11.9247 21.1154L12.809 24.2105L13.1485 22.3431C13.2015 22.0513 13.3424 21.7826 13.5521 21.5729L16.7894 18.3356L11.9247 21.1154Z" fill="white"/>
</svg>
